<?xml version="1.0" encoding="UTF-8" standalone="no"?>
<!DOCTYPE svg PUBLIC "-//W3C//DTD SVG 1.1//EN" "http://www.w3.org/Graphics/SVG/1.1/DTD/svg11.dtd">
<svg width="100%" height="100%" viewBox="0 0 1765 431" version="1.1" xmlns="http://www.w3.org/2000/svg" xmlns:xlink="http://www.w3.org/1999/xlink" xml:space="preserve" xmlns:serif="http://www.serif.com/" style="fill-rule:evenodd;clip-rule:evenodd;stroke-linejoin:round;stroke-miterlimit:2;">
    <g transform="matrix(1,0,0,1,-622.359,-977.716)">
        <g transform="matrix(4.16667,0,0,4.16667,0,0)">
            <g transform="matrix(0.959943,0,0,0.959943,-33.9315,5.03426)">
                <g transform="matrix(1,0,0,1,327.939,281.162)">
                    <path d="M0,-27.513L-10.145,-27.513L-10.145,-16.566L0,-16.566C3.356,-16.566 5.837,-18.682 5.837,-21.966C5.837,-25.324 3.356,-27.513 0,-27.513M-22.697,10.582L-22.697,-38.095L1.677,-38.095C12.625,-38.095 18.61,-30.723 18.61,-21.893C18.61,-13.136 12.625,-5.911 1.677,-5.911L-10.145,-5.911L-10.145,10.582L-22.697,10.582Z" style="fill:white;fill-rule:nonzero;"/>
                </g>
                <g transform="matrix(1,0,0,1,0,-77.189)">
                    <rect x="351.875" y="320.256" width="11.239" height="48.677" style="fill:white;"/>
                </g>
                <g transform="matrix(1,0,0,1,395.88,274.156)">
                    <path d="M0,-0.073C0,-4.744 -2.773,-8.611 -7.735,-8.611C-12.625,-8.611 -15.325,-4.744 -15.325,-0.073C-15.325,4.671 -12.625,8.538 -7.735,8.538C-2.773,8.538 0,4.671 0,-0.073M-26.928,-0.073C-26.928,-9.999 -19.704,-18.537 -7.735,-18.537C4.379,-18.537 11.531,-9.999 11.531,-0.073C11.531,9.852 4.379,18.464 -7.735,18.464C-19.704,18.464 -26.928,9.852 -26.928,-0.073" style="fill:white;fill-rule:nonzero;"/>
                </g>
                <g transform="matrix(1,0,0,1,415.658,257.226)">
                    <path d="M0,25.031L0,9.048L-5.839,9.048L-5.839,-0.73L0,-0.73L0,-10.363L11.166,-10.363L11.166,-0.73L18.318,-0.73L18.318,9.048L11.166,9.048L11.166,21.893C11.166,23.936 12.333,25.469 14.304,25.469C15.543,25.469 16.785,25.031 17.149,24.593L19.339,33.059C17.952,34.372 15.179,35.394 11.019,35.394C3.867,35.394 0,31.818 0,25.031" style="fill:white;fill-rule:nonzero;"/>
                </g>
                <g transform="matrix(1,0,0,1,467.254,243.067)">
                    <path d="M0,48.677L0,10.947L-13.647,10.947L-13.647,0L26.126,0L26.126,10.947L12.552,10.947L12.552,48.677L0,48.677Z" style="fill:white;fill-rule:nonzero;"/>
                </g>
                <g transform="matrix(1,0,0,1,526.877,256.495)">
                    <path d="M0,35.249L-6.641,13.428L-13.21,35.249L-25.324,35.249L-35.759,0L-24.228,0L-18.537,21.602L-11.604,0L-1.606,0L5.327,21.602L10.947,0L22.551,0L12.114,35.249L0,35.249Z" style="fill:white;fill-rule:nonzero;"/>
                </g>
                <g transform="matrix(1,0,0,1,0,-81.056)">
                    <path d="M553.078,337.552L564.317,337.552L564.317,372.801L553.078,372.801L553.078,337.552ZM552.274,326.677C552.274,323.101 555.121,320.255 558.696,320.255C562.273,320.255 565.119,323.101 565.119,326.677C565.119,330.254 562.273,333.1 558.696,333.1C555.121,333.1 552.274,330.254 552.274,326.677" style="fill:white;fill-rule:nonzero;"/>
                </g>
                <g transform="matrix(1,0,0,1,574.167,268.755)">
                    <path d="M0,10.729C2.629,13.064 8.247,15.4 12.408,15.4C15.764,15.4 17.151,14.305 17.151,12.772C17.151,10.948 14.743,10.291 11.093,9.707C5.11,8.685 -3.356,7.445 -3.356,-1.532C-3.356,-7.735 1.971,-13.136 11.751,-13.136C17.662,-13.136 22.697,-11.238 26.492,-8.465L22.186,-1.021C20.07,-3.064 16.056,-4.889 11.824,-4.889C9.195,-4.889 7.372,-4.013 7.372,-2.481C7.372,-0.875 9.268,-0.291 12.991,0.366C18.976,1.388 27.878,2.847 27.878,12.188C27.878,18.902 21.968,23.865 11.824,23.865C5.547,23.865 -0.948,21.748 -4.671,18.464L0,10.729Z" style="fill:white;fill-rule:nonzero;"/>
                </g>
                <g transform="matrix(1,0,0,1,610.146,257.226)">
                    <path d="M0,25.031L0,9.048L-5.839,9.048L-5.839,-0.73L0,-0.73L0,-10.363L11.166,-10.363L11.166,-0.73L18.318,-0.73L18.318,9.048L11.166,9.048L11.166,21.893C11.166,23.936 12.333,25.469 14.304,25.469C15.543,25.469 16.785,25.031 17.149,24.593L19.339,33.059C17.952,34.372 15.179,35.394 11.019,35.394C3.867,35.394 0,31.818 0,25.031" style="fill:white;fill-rule:nonzero;"/>
                </g>
                <g transform="matrix(1,0,0,1,302.71,328.136)">
                    <path d="M0,0C0,-11.133 8.417,-18.736 19.007,-18.736C27.262,-18.736 31.878,-14.392 34.431,-9.884L27.805,-6.626C26.284,-9.558 23.026,-11.893 19.007,-11.893C12.708,-11.893 7.929,-6.843 7.929,0C7.929,6.843 12.708,11.893 19.007,11.893C23.026,11.893 26.284,9.612 27.805,6.626L34.431,9.829C31.824,14.337 27.262,18.736 19.007,18.736C8.417,18.736 0,11.133 0,0" style="fill:white;fill-rule:nonzero;"/>
                </g>
                <g transform="matrix(1,0,0,1,358.377,340.029)">
                    <path d="M0,-23.786C-6.679,-23.786 -10.97,-18.681 -10.97,-11.893C-10.97,-5.159 -6.679,-0 0,-0C6.679,-0 11.024,-5.159 11.024,-11.893C11.024,-18.681 6.679,-23.786 0,-23.786M0,-30.629C10.97,-30.629 18.953,-22.809 18.953,-11.893C18.953,-0.977 10.97,6.843 0,6.843C-10.916,6.843 -18.899,-0.977 -18.899,-11.893C-18.899,-22.809 -10.916,-30.629 0,-30.629" style="fill:white;fill-rule:nonzero;"/>
                </g>
                <g transform="matrix(1,0,0,1,407.201,309.999)">
                    <path d="M0,36.222L-17.269,11.893L-17.269,36.222L-24.981,36.222L-24.981,0L-17.052,0L-0.271,23.46L-0.271,0L7.44,0L7.44,36.222L0,36.222Z" style="fill:white;fill-rule:nonzero;"/>
                </g>
                <g transform="matrix(1,0,0,1,423.007,321.076)">
                    <path d="M0,14.175C2.552,16.836 6.517,19.063 11.513,19.063C15.749,19.063 17.812,17.053 17.812,14.99C17.812,12.274 14.662,11.351 10.482,10.373C4.562,9.015 -3.041,7.386 -3.041,-0.705C-3.041,-6.734 2.172,-11.621 10.699,-11.621C16.455,-11.621 21.234,-9.883 24.818,-6.57L20.528,-0.923C17.595,-3.638 13.685,-4.887 10.155,-4.887C6.679,-4.887 4.833,-3.366 4.833,-1.194C4.833,1.249 7.874,2.01 12.056,2.987C18.03,4.346 25.633,6.137 25.633,14.175C25.633,20.8 20.909,25.796 11.133,25.796C4.182,25.796 -0.815,23.462 -4.236,20.04L0,14.175Z" style="fill:white;fill-rule:nonzero;"/>
                </g>
                <g transform="matrix(1,0,0,1,453.313,346.872)">
                    <path d="M0,-36.874L7.821,-36.874L7.821,-15.369C7.821,-10.319 10.59,-6.843 16.238,-6.843C21.777,-6.843 24.547,-10.319 24.547,-15.369L24.547,-36.874L32.367,-36.874L32.367,-15.152C32.367,-6.137 27.208,0 16.238,0C5.16,0 0,-6.191 0,-15.097L0,-36.874Z" style="fill:white;fill-rule:nonzero;"/>
                </g>
                <g transform="matrix(1,0,0,1,492.307,309.999)">
                    <path d="M0,36.222L0,0L7.712,0L7.712,29.434L23.026,29.434L23.026,36.222L0,36.222Z" style="fill:white;fill-rule:nonzero;"/>
                </g>
                <g transform="matrix(1,0,0,1,523.101,309.999)">
                    <path d="M0,36.222L0,6.788L-10.59,6.788L-10.59,0L18.301,0L18.301,6.788L7.766,6.788L7.766,36.222L0,36.222Z" style="fill:white;fill-rule:nonzero;"/>
                </g>
                <g transform="matrix(1,0,0,1,0,44.218)">
                    <rect x="545.803" y="265.78" width="7.711" height="36.222" style="fill:white;"/>
                </g>
                <g transform="matrix(1,0,0,1,585.121,309.999)">
                    <path d="M0,36.222L-17.27,11.893L-17.27,36.222L-24.981,36.222L-24.981,0L-17.052,0L-0.271,23.46L-0.271,0L7.44,0L7.44,36.222L0,36.222Z" style="fill:white;fill-rule:nonzero;"/>
                </g>
                <g transform="matrix(1,0,0,1,616.73,346.927)">
                    <path d="M0,-37.526C7.494,-37.526 12.219,-33.888 14.988,-29.598L8.581,-26.122C6.897,-28.674 3.801,-30.683 0,-30.683C-6.572,-30.683 -11.35,-25.633 -11.35,-18.79C-11.35,-11.948 -6.572,-6.897 0,-6.897C3.312,-6.897 6.245,-8.255 7.82,-9.667L7.82,-14.066L-1.846,-14.066L-1.846,-20.691L15.423,-20.691L15.423,-6.843C11.73,-2.716 6.571,0 0,0C-10.59,0 -19.279,-7.386 -19.279,-18.79C-19.279,-30.249 -10.59,-37.526 0,-37.526" style="fill:white;fill-rule:nonzero;"/>
                </g>
            </g>
        </g>
        <g transform="matrix(4.16667,0,0,4.16667,0,0)">
            <g transform="matrix(0,-0.0624965,-0.0624965,0,207.792,260.411)">
                <path d="M0.976,0.61C0.952,0.586 0.928,0.55 0.916,0.514C0.94,0.538 0.964,0.562 1,0.586L0.976,0.61ZM0.004,-0.602C0.46,-0.35 0.652,0.118 0.916,0.514C0.52,0.166 0.244,-0.266 0.004,-0.602Z" style="fill:white;fill-rule:nonzero;"/>
            </g>
            <g transform="matrix(0,-0.0694147,-0.0694147,0,225.667,278.095)">
                <path d="M0.983,0.368C0.951,0.347 0.929,0.325 0.907,0.303C0.94,0.314 0.961,0.336 0.994,0.347L0.983,0.368ZM-0.001,-0.367C0.432,-0.226 0.637,0.055 0.907,0.303C0.529,0.098 0.248,-0.161 -0.001,-0.367Z" style="fill:white;fill-rule:nonzero;"/>
            </g>
            <g transform="matrix(0,-0.000600007,-0.000600007,0,210.856,272.324)">
                <path d="M0.354,-0.462L0.354,-2.963L0.354,-0.462ZM0.354,2.039C-0.897,0.789 -0.897,0.789 0.354,-0.462L0.354,2.039Z" style="fill:white;fill-rule:nonzero;"/>
            </g>
            <g transform="matrix(0,-85.1738,-85.1738,0,196.568,319.826)">
                <path d="M1,0.076L0.903,0.113L0.849,0.243C0.849,0.243 0.849,0.243 0.849,0.244L0.892,0.338L0.784,0.446L0.69,0.403C0.689,0.403 0.689,0.403 0.689,0.403L0.559,0.457L0.522,0.554L0.37,0.554L0.333,0.457L0.203,0.403C0.203,0.403 0.202,0.403 0.202,0.403L0.108,0.446L0,0.338L0.043,0.243L0.001,0.141C0.014,0.147 0.028,0.15 0.039,0.15C0.245,0.155 0.213,0.338 0.449,0.338C0.636,0.338 0.788,0.187 0.788,0C0.788,-0.187 0.636,-0.338 0.449,-0.338C0.213,-0.338 0.245,-0.155 0.039,-0.15C0.028,-0.15 0.013,-0.146 0,-0.14L0.043,-0.243L0,-0.338L0.108,-0.446L0.202,-0.403C0.202,-0.403 0.203,-0.403 0.203,-0.403L0.333,-0.457L0.37,-0.554L0.522,-0.554L0.559,-0.457L0.689,-0.403C0.689,-0.403 0.689,-0.403 0.69,-0.403L0.784,-0.446L0.892,-0.338L0.849,-0.244C0.849,-0.243 0.849,-0.243 0.849,-0.243L0.903,-0.113L1,-0.076L1,0.076Z" style="fill:white;fill-rule:nonzero;"/>
            </g>
            <g transform="matrix(0.750384,0,0,0.750384,205.687,339.392)">
                <path d="M0,-22.28C-8.308,-20.985 -15.999,-20.985 -24.306,-22.28C-24.382,-22.293 -24.425,-15.194 -24.468,-9.094C-24.474,-8.402 -24.259,-7.715 -23.86,-7.117C-18.994,0.013 -5.313,0.013 -0.446,-7.116C-0.046,-7.714 0.167,-8.402 0.162,-9.093C0.119,-15.195 0.077,-22.293 0,-22.28" style="fill:white;fill-rule:nonzero;"/>
            </g>
            <g transform="matrix(0,-25.62,-25.62,0,196.568,308.183)">
                <path d="M0.755,0.245C0.665,0.245 0.587,0.196 0.544,0.124L0,0.157L0,-0.157L0.544,-0.124C0.587,-0.196 0.665,-0.245 0.755,-0.245C0.89,-0.245 1,-0.135 1,0C1,0.135 0.89,0.245 0.755,0.245Z" style="fill:white;fill-rule:nonzero;"/>
            </g>
            <g transform="matrix(0,-0.0624965,-0.0624965,0,207.225,260.411)">
                <path d="M0.976,0.599C0.952,0.563 0.928,0.527 0.904,0.491C0.94,0.515 0.964,0.551 1,0.575L0.976,0.599ZM0.004,-0.614C0.46,-0.374 0.652,0.083 0.904,0.491C0.52,0.143 0.244,-0.302 0.004,-0.614Z" style="fill:white;fill-rule:nonzero;"/>
            </g>
        </g>
    </g>
</svg>
