<?xml version="1.0" encoding="UTF-8" standalone="no"?>
<!DOCTYPE svg PUBLIC "-//W3C//DTD SVG 1.1//EN" "http://www.w3.org/Graphics/SVG/1.1/DTD/svg11.dtd">
<svg width="100%" height="100%" viewBox="0 0 1853 449" version="1.1" xmlns="http://www.w3.org/2000/svg" xmlns:xlink="http://www.w3.org/1999/xlink" xml:space="preserve" xmlns:serif="http://www.serif.com/" style="fill-rule:evenodd;clip-rule:evenodd;stroke-linejoin:round;stroke-miterlimit:2;">
    <g transform="matrix(1,0,0,1,-115.513,-120.642)">
        <g transform="matrix(4.16667,0,0,4.16667,0,0)">
            <path d="M168.083,43.403L157.938,43.403L157.938,54.351L168.083,54.351C171.44,54.351 173.921,52.234 173.921,48.95C173.921,45.593 171.44,43.403 168.083,43.403ZM145.387,81.498L145.387,32.821L169.761,32.821C180.708,32.821 186.693,40.193 186.693,49.023C186.693,57.781 180.708,65.005 169.761,65.005L157.938,65.005L157.938,81.498L145.387,81.498Z" style="fill:rgb(35,31,32);fill-rule:nonzero;"/>
        </g>
        <g transform="matrix(4.16667,0,0,4.16667,0,0)">
            <rect x="192.02" y="32.821" width="11.239" height="48.677" style="fill:rgb(35,31,32);fill-rule:nonzero;"/>
        </g>
        <g transform="matrix(4.16667,0,0,4.16667,0,0)">
            <path d="M236.025,63.838C236.025,59.167 233.252,55.299 228.29,55.299C223.4,55.299 220.7,59.167 220.7,63.838C220.7,68.581 223.4,72.449 228.29,72.449C233.252,72.449 236.025,68.581 236.025,63.838ZM209.097,63.838C209.097,53.912 216.321,45.374 228.29,45.374C240.404,45.374 247.556,53.912 247.556,63.838C247.556,73.762 240.404,82.374 228.29,82.374C216.321,82.374 209.097,73.762 209.097,63.838Z" style="fill:rgb(35,31,32);fill-rule:nonzero;"/>
        </g>
        <g transform="matrix(4.16667,0,0,4.16667,0,0)">
            <path d="M255.803,72.011L255.803,56.029L249.964,56.029L249.964,46.25L255.803,46.25L255.803,36.617L266.969,36.617L266.969,46.25L274.121,46.25L274.121,56.029L266.969,56.029L266.969,68.873C266.969,70.917 268.136,72.449 270.107,72.449C271.346,72.449 272.588,72.011 272.952,71.574L275.142,80.039C273.755,81.353 270.982,82.374 266.822,82.374C259.67,82.374 255.803,78.798 255.803,72.011Z" style="fill:rgb(35,31,32);fill-rule:nonzero;"/>
        </g>
        <g transform="matrix(4.16667,0,0,4.16667,0,0)">
            <path d="M307.399,81.498L307.399,43.769L293.752,43.769L293.752,32.821L333.525,32.821L333.525,43.769L319.951,43.769L319.951,81.498L307.399,81.498Z" style="fill:rgb(35,31,32);fill-rule:nonzero;"/>
        </g>
        <g transform="matrix(4.16667,0,0,4.16667,0,0)">
            <path d="M367.022,81.498L360.38,59.678L353.812,81.498L341.698,81.498L331.263,46.25L342.793,46.25L348.485,67.851L355.418,46.25L365.416,46.25L372.349,67.851L377.969,46.25L389.573,46.25L379.136,81.498L367.022,81.498Z" style="fill:rgb(35,31,32);fill-rule:nonzero;"/>
        </g>
        <g transform="matrix(4.16667,0,0,4.16667,0,0)">
            <path d="M393.222,81.498L393.222,46.25L404.461,46.25L404.461,81.498L393.222,81.498ZM392.419,35.375C392.419,31.8 395.266,28.954 398.841,28.954C402.418,28.954 405.264,31.8 405.264,35.375C405.264,38.952 402.418,41.798 398.841,41.798C395.266,41.798 392.419,38.952 392.419,35.375Z" style="fill:rgb(35,31,32);fill-rule:nonzero;"/>
        </g>
        <g transform="matrix(4.16667,0,0,4.16667,0,0)">
            <path d="M414.312,69.238C416.94,71.574 422.559,73.909 426.719,73.909C430.075,73.909 431.463,72.814 431.463,71.281C431.463,69.457 429.054,68.8 425.405,68.217C419.421,67.195 410.955,65.954 410.955,56.978C410.955,50.775 416.282,45.374 426.063,45.374C431.973,45.374 437.008,47.272 440.804,50.045L436.498,57.488C434.381,55.445 430.367,53.62 426.136,53.62C423.507,53.62 421.684,54.496 421.684,56.029C421.684,57.635 423.58,58.218 427.303,58.875C433.288,59.897 442.19,61.356 442.19,70.698C442.19,77.411 436.279,82.374 426.136,82.374C419.859,82.374 413.364,80.258 409.641,76.974L414.312,69.238Z" style="fill:rgb(35,31,32);fill-rule:nonzero;"/>
        </g>
        <g transform="matrix(4.16667,0,0,4.16667,0,0)">
            <path d="M450.291,72.011L450.291,56.029L444.452,56.029L444.452,46.25L450.291,46.25L450.291,36.617L461.457,36.617L461.457,46.25L468.609,46.25L468.609,56.029L461.457,56.029L461.457,68.873C461.457,70.917 462.624,72.449 464.595,72.449C465.835,72.449 467.076,72.011 467.441,71.574L469.63,80.039C468.243,81.353 465.47,82.374 461.31,82.374C454.158,82.374 450.291,78.798 450.291,72.011Z" style="fill:rgb(35,31,32);fill-rule:nonzero;"/>
        </g>
        <g transform="matrix(4.16667,0,0,4.16667,0,0)">
            <path d="M142.855,117.89C142.855,106.757 151.272,99.155 161.862,99.155C170.117,99.155 174.733,103.499 177.285,108.006L170.66,111.265C169.139,108.333 165.881,105.997 161.862,105.997C155.562,105.997 150.784,111.048 150.784,117.89C150.784,124.733 155.562,129.783 161.862,129.783C165.881,129.783 169.139,127.503 170.66,124.516L177.285,127.72C174.678,132.227 170.117,136.626 161.862,136.626C151.272,136.626 142.855,129.024 142.855,117.89Z" style="fill:rgb(35,31,32);fill-rule:nonzero;"/>
        </g>
        <g transform="matrix(4.16667,0,0,4.16667,0,0)">
            <path d="M198.522,105.997C191.843,105.997 187.552,111.102 187.552,117.89C187.552,124.624 191.843,129.783 198.522,129.783C205.202,129.783 209.547,124.624 209.547,117.89C209.547,111.102 205.202,105.997 198.522,105.997ZM198.522,99.155C209.492,99.155 217.475,106.974 217.475,117.89C217.475,128.806 209.492,136.626 198.522,136.626C187.606,136.626 179.623,128.806 179.623,117.89C179.623,106.974 187.606,99.155 198.522,99.155Z" style="fill:rgb(35,31,32);fill-rule:nonzero;"/>
        </g>
        <g transform="matrix(4.16667,0,0,4.16667,0,0)">
            <path d="M247.346,135.974L230.077,111.645L230.077,135.974L222.365,135.974L222.365,99.753L230.294,99.753L247.075,123.212L247.075,99.753L254.786,99.753L254.786,135.974L247.346,135.974Z" style="fill:rgb(35,31,32);fill-rule:nonzero;"/>
        </g>
        <g transform="matrix(4.16667,0,0,4.16667,0,0)">
            <path d="M263.152,125.005C265.704,127.666 269.669,129.893 274.665,129.893C278.901,129.893 280.965,127.883 280.965,125.819C280.965,123.104 277.815,122.181 273.634,121.203C267.714,119.845 260.111,118.216 260.111,110.124C260.111,104.096 265.324,99.209 273.851,99.209C279.607,99.209 284.386,100.946 287.97,104.26L283.68,109.907C280.747,107.192 276.837,105.943 273.307,105.943C269.832,105.943 267.985,107.463 267.985,109.635C267.985,112.079 271.027,112.84 275.208,113.817C281.182,115.175 288.785,116.967 288.785,125.005C288.785,131.63 284.061,136.626 274.285,136.626C267.334,136.626 262.337,134.291 258.917,130.871L263.152,125.005Z" style="fill:rgb(35,31,32);fill-rule:nonzero;"/>
        </g>
        <g transform="matrix(4.16667,0,0,4.16667,0,0)">
            <path d="M293.457,99.753L301.278,99.753L301.278,121.257C301.278,126.308 304.048,129.783 309.695,129.783C315.234,129.783 318.004,126.308 318.004,121.257L318.004,99.753L325.825,99.753L325.825,121.474C325.825,130.489 320.665,136.626 309.695,136.626C298.617,136.626 293.457,130.435 293.457,121.529L293.457,99.753Z" style="fill:rgb(35,31,32);fill-rule:nonzero;"/>
        </g>
        <g transform="matrix(4.16667,0,0,4.16667,0,0)">
            <path d="M332.452,135.974L332.452,99.753L340.164,99.753L340.164,129.186L355.478,129.186L355.478,135.974L332.452,135.974Z" style="fill:rgb(35,31,32);fill-rule:nonzero;"/>
        </g>
        <g transform="matrix(4.16667,0,0,4.16667,0,0)">
            <path d="M363.246,135.974L363.246,106.54L352.656,106.54L352.656,99.753L381.547,99.753L381.547,106.54L371.012,106.54L371.012,135.974L363.246,135.974Z" style="fill:rgb(35,31,32);fill-rule:nonzero;"/>
        </g>
        <g transform="matrix(4.16667,0,0,4.16667,0,0)">
            <rect x="385.948" y="99.753" width="7.711" height="36.221" style="fill:rgb(35,31,32);fill-rule:nonzero;"/>
        </g>
        <g transform="matrix(4.16667,0,0,4.16667,0,0)">
            <path d="M425.266,135.974L407.996,111.645L407.996,135.974L400.285,135.974L400.285,99.753L408.214,99.753L424.995,123.212L424.995,99.753L432.706,99.753L432.706,135.974L425.266,135.974Z" style="fill:rgb(35,31,32);fill-rule:nonzero;"/>
        </g>
        <g transform="matrix(4.16667,0,0,4.16667,0,0)">
            <path d="M456.875,99.155C464.369,99.155 469.094,102.793 471.863,107.083L465.456,110.559C463.772,108.006 460.677,105.997 456.875,105.997C450.304,105.997 445.525,111.048 445.525,117.89C445.525,124.733 450.304,129.783 456.875,129.783C460.188,129.783 463.12,128.426 464.695,127.014L464.695,122.615L455.029,122.615L455.029,115.99L472.299,115.99L472.299,129.838C468.605,133.965 463.446,136.681 456.875,136.681C446.285,136.681 437.596,129.295 437.596,117.89C437.596,106.432 446.285,99.155 456.875,99.155Z" style="fill:rgb(35,31,32);fill-rule:nonzero;"/>
        </g>
        <g transform="matrix(4.16667,0,0,4.16667,0,0)">
            <g transform="matrix(0.753233,0,0,0.753233,27.7232,29.1601)">
                <path d="M77.811,34.823L77.809,34.825C77.845,34.85 77.887,34.865 77.91,34.907C77.881,34.885 77.841,34.86 77.811,34.823Z" style="fill:rgb(35,31,32);fill-rule:nonzero;"/>
            </g>
        </g>
        <g transform="matrix(4.16667,0,0,4.16667,0,0)">
            <g transform="matrix(0.753233,0,0,0.753233,27.7232,29.1601)">
                <path d="M101.65,58.381L101.649,58.382C101.673,58.411 101.703,58.43 101.716,58.473C101.697,58.449 101.67,58.42 101.65,58.381Z" style="fill:rgb(35,31,32);fill-rule:nonzero;"/>
            </g>
        </g>
        <g transform="matrix(4.16667,0,0,4.16667,0,0)">
            <g transform="matrix(0.753233,0,0,0.753233,27.7232,29.1601)">
                <path d="M81.943,50.782C81.944,50.782 81.946,50.78 81.947,50.781L81.943,50.781L81.943,50.782Z" style="fill:rgb(35,31,32);fill-rule:nonzero;"/>
            </g>
        </g>
        <g transform="matrix(4.16667,0,0,4.16667,0,0)">
            <g transform="matrix(0.753233,0,0,0.753233,27.7232,29.1601)">
                <path d="M114.782,50.672L108.66,35.91C108.648,35.88 108.649,35.847 108.662,35.818L113.507,25.126L101.258,12.878L90.567,17.723C90.537,17.736 90.504,17.737 90.475,17.725L75.712,11.603L71.563,0.578L54.242,0.578L50.093,11.603L35.331,17.725C35.301,17.737 35.268,17.736 35.239,17.723L24.548,12.878L12.299,25.126L17.144,35.818C17.158,35.847 17.158,35.88 17.146,35.91L11.024,50.672L0,54.821L0,72.142L11.024,76.291L17.146,91.053C17.158,91.083 17.158,91.116 17.144,91.145L12.299,101.836L24.548,114.085L35.285,109.219L46.85,114.015C46.212,112.515 45.881,110.871 45.851,109.661C45.273,86.237 24.496,89.913 24.496,63.071C24.496,41.859 41.691,24.664 62.903,24.664C84.114,24.664 101.31,41.859 101.31,63.071C101.31,89.913 80.533,86.237 79.954,109.661C79.924,110.89 79.502,112.567 78.787,114.085L90.521,109.219L101.258,114.085L113.507,101.836L108.662,91.145C108.649,91.116 108.648,91.083 108.66,91.053L114.782,76.291L125.807,72.142L125.807,54.821L114.782,50.672Z" style="fill:rgb(0,26,106);fill-rule:nonzero;"/>
                <path d="M75.056,117.88C66.748,119.175 59.057,119.175 50.75,117.88C50.673,117.867 50.631,124.966 50.588,131.067C50.582,131.758 50.797,132.445 51.196,133.043C56.062,140.173 69.743,140.173 74.61,133.044C75.01,132.446 75.223,131.758 75.218,131.067C75.175,124.965 75.133,117.867 75.056,117.88Z" style="fill:rgb(0,26,106);fill-rule:nonzero;"/>
                <path d="M71.257,72.781C71.257,68.167 67.517,64.427 62.903,64.427C58.289,64.427 54.549,68.167 54.549,72.781C54.549,75.854 56.213,78.531 58.683,79.982L57.557,98.569L68.249,98.569L67.123,79.982C69.594,78.531 71.257,75.853 71.257,72.781Z" style="fill:rgb(0,26,106);fill-rule:nonzero;"/>
            </g>
        </g>
        <g transform="matrix(4.16667,0,0,4.16667,0,0)">
            <g transform="matrix(0.753233,0,0,0.753233,27.7232,29.1601)">
                <path d="M77.058,34.823L77.056,34.825C77.092,34.85 77.134,34.865 77.157,34.907C77.128,34.885 77.088,34.86 77.058,34.823Z" style="fill:rgb(35,31,32);fill-rule:nonzero;"/>
            </g>
        </g>
    </g>
</svg>
