<?xml version="1.0" encoding="UTF-8" standalone="no"?>
<!DOCTYPE svg PUBLIC "-//W3C//DTD SVG 1.1//EN" "http://www.w3.org/Graphics/SVG/1.1/DTD/svg11.dtd">
<svg width="100%" height="100%" viewBox="0 0 540 95" version="1.1" xmlns="http://www.w3.org/2000/svg" xmlns:xlink="http://www.w3.org/1999/xlink" xml:space="preserve" xmlns:serif="http://www.serif.com/" style="fill-rule:evenodd;clip-rule:evenodd;stroke-linejoin:round;stroke-miterlimit:2;">
    <g transform="matrix(1,0,0,1,-524.967,-359.531)">
        <g transform="matrix(0.70297,0,0,0.70297,380.322,57.4886)">
            <g transform="matrix(2.58421,0,0,2.58421,-1798.11,-978.644)">
                <text x="832.734px" y="570.938px" style="font-family:'YuGothicUI-Bold', 'Yu Gothic UI', sans-serif;font-weight:700;font-size:36.479px;">P<tspan x="858.214px 880.202px 911.933px 936.219px 950.406px 974.692px 1014.08px 1028.88px 1052.89px " y="570.938px 570.938px 570.938px 570.938px 570.938px 570.938px 570.938px 570.938px 570.938px ">LOT TWIST</tspan></text>
            </g>
            <g transform="matrix(2.27749,0,0,1.93587,-1542.23,-541.614)">
                <text x="832.734px" y="570.938px" style="font-family:'YuGothicUI-Bold', 'Yu Gothic UI', sans-serif;font-weight:700;font-size:30.33px;">C<tspan x="860.914px 893.181px 925.788px 951.643px 982.31px 1006.48px 1032.55px 1050.74px 1083.34px " y="570.938px 570.938px 570.938px 570.938px 570.938px 570.938px 570.938px 570.938px 570.938px ">ONSULTING</tspan></text>
            </g>
        </g>
        <g transform="matrix(0.956229,0,0,0.956229,-211.616,-142.816)">
            <path d="M869.3,525.342L770.3,525.342L770.3,624.342L869.3,624.342L869.3,525.342ZM817.569,545.109C813.135,548.056 811.323,551.672 810.633,556.128C810.08,559.696 810.373,563.925 810.34,568.929C810.336,569.468 810.339,570.029 810.349,570.608C808.237,571.138 806.277,572.041 804.561,573.491C801.836,575.795 799.578,579.525 798.544,585.732C796.685,596.892 799.738,602.653 802.624,605.06C804.545,606.663 806.649,607.156 808.396,606.991C812.554,606.598 815.439,603.662 816.904,598.727C818.516,593.298 818.319,584.942 818.082,577.525C819.93,577.613 821.807,577.804 823.628,577.905C828.036,578.149 832.158,577.811 835.36,575.785C837.735,574.283 839.728,571.906 840.925,568.021L841,567.736C845.076,549.584 829.399,537.247 817.569,545.109ZM810.608,578.482C810.045,578.772 809.517,579.147 809.036,579.632C807.568,581.112 806.58,583.461 805.995,586.974C805.105,592.321 805.476,595.877 806.575,598.054C806.839,598.575 807.132,598.983 807.463,599.259C807.555,599.336 807.715,599.422 807.781,599.456C808.502,599.336 808.842,598.651 809.187,597.882C809.716,596.705 810.048,595.243 810.282,593.611C810.922,589.172 810.8,583.659 810.608,578.482ZM817.894,569.971C818.449,569.987 819.006,570.015 819.565,570.051C822.402,570.232 825.262,570.578 827.836,570.37C830.42,570.161 832.603,569.195 833.664,565.923C835.097,559.289 832.756,553.622 828.861,551.245C826.793,549.982 824.288,549.83 821.974,551.257L821.75,551.4C818.818,553.349 818.116,555.908 817.909,559.077C817.721,561.95 817.919,565.233 817.894,568.98C817.892,569.304 817.892,569.634 817.894,569.971Z" style="fill:rgb(34,103,182);"/>
        </g>
    </g>
</svg>
