<?xml version="1.0" encoding="UTF-8" standalone="no"?>
<!DOCTYPE svg PUBLIC "-//W3C//DTD SVG 1.1//EN" "http://www.w3.org/Graphics/SVG/1.1/DTD/svg11.dtd">
<svg width="100%" height="100%" viewBox="0 0 778 138" version="1.1" xmlns="http://www.w3.org/2000/svg" xmlns:xlink="http://www.w3.org/1999/xlink" xml:space="preserve" xmlns:serif="http://www.serif.com/" style="fill-rule:evenodd;clip-rule:evenodd;stroke-linejoin:round;stroke-miterlimit:2;">
    <g transform="matrix(1,0,0,1,-196.173,-910.04)">
        <g transform="matrix(1,0,0,1,0,163.762)">
            <g transform="matrix(2.58421,0,0,2.58421,-1798.11,-660.47)">
                <text x="832.734px" y="570.938px" style="font-family:'YuGothicUI-Bold', 'Yu Gothic UI', sans-serif;font-weight:700;font-size:36.479px;">P<tspan x="858.214px 880.202px 911.933px 936.219px 950.406px 974.692px 1014.08px 1028.88px 1052.89px " y="570.938px 570.938px 570.938px 570.938px 570.938px 570.938px 570.938px 570.938px 570.938px ">LOT TWIST</tspan></text>
            </g>
            <g transform="matrix(2.27749,0,0,1.93587,-1542.23,-223.44)">
                <text x="832.734px" y="570.938px" style="font-family:'YuGothicUI-Bold', 'Yu Gothic UI', sans-serif;font-weight:700;font-size:30.33px;">C<tspan x="860.914px 893.181px 925.788px 951.643px 982.31px 1006.48px 1032.55px 1050.74px 1083.34px " y="570.938px 570.938px 570.938px 570.938px 570.938px 570.938px 570.938px 570.938px 570.938px ">ONSULTING</tspan></text>
            </g>
        </g>
        <g transform="matrix(1,0,0,1,-1481.33,195.134)">
            <path d="M1677.51,715.945L1677.51,852.698L1705.84,852.698C1705.14,846.496 1704.8,840.233 1704.98,834.126C1705.42,819.781 1708.63,806.303 1716.32,795.902C1712,777.111 1713.3,756.329 1718.1,735.312C1702.9,730.694 1688.91,723.267 1677.51,715.945ZM1719.89,852.698L1729.63,852.698C1730.01,839.21 1728.07,826.011 1722.61,814.037C1720.26,820.29 1719.19,827.309 1718.98,834.549C1718.8,840.519 1719.16,846.646 1719.89,852.698ZM1738.5,714.905C1737.3,718.332 1736.18,721.772 1735.14,725.214C1752.1,729.775 1766.58,738.383 1774.73,747.506C1782.27,755.956 1784.61,765.101 1781.5,772.833C1778.53,780.218 1769.7,787.455 1751.64,790.692C1743.18,792.208 1736.75,795.433 1731.92,799.852C1732.79,802.414 1733.8,804.93 1734.96,807.39C1741.53,821.37 1743.93,836.872 1743.54,852.698L1815.3,852.698L1815.3,714.905L1738.5,714.905ZM1731.54,738.737C1727.9,754.532 1726.42,770.134 1728.4,784.648C1734.05,781.052 1740.91,778.391 1749.17,776.911C1755.47,775.782 1760.3,774.212 1763.78,772.204C1766.16,770.831 1767.8,769.373 1768.51,767.61C1769.88,764.195 1767.62,760.562 1764.28,756.829C1757.57,749.31 1745.52,742.478 1731.54,738.737ZM1723.77,714.905L1704.11,714.905C1709.66,717.538 1715.55,719.901 1721.64,721.769C1722.31,719.479 1723.02,717.19 1723.77,714.905Z"/>
        </g>
    </g>
</svg>
